<?xml version="1.0" encoding="UTF-8"?>
<svg width="49px" height="38px" viewBox="0 0 49 38" version="1.1" xmlns="http://www.w3.org/2000/svg" xmlns:xlink="http://www.w3.org/1999/xlink">
    <!-- Generator: Sketch 43.2 (39069) - http://www.bohemiancoding.com/sketch -->
    <title></title>
    <desc>Created with Sketch.</desc>
    <defs>
        <linearGradient x1="50%" y1="0%" x2="50%" y2="100%" id="linearGradient-1">
            <stop stop-color="#FFB2A5" offset="0%"></stop>
            <stop stop-color="#EC8675" offset="100%"></stop>
        </linearGradient>
    </defs>
    <g id="UI-0419" stroke="none" stroke-width="1" fill="none" fill-rule="evenodd">
        <g id="ui-home-" transform="translate(-1043.000000, -2646.000000)" fill="url(#linearGradient-1)">
            <g id="Group-48" transform="translate(0.000000, 2469.000000)">
                <g id="Group-46" transform="translate(909.000000, 125.000000)">
                    <g id="Group-42" transform="translate(113.000000, 26.000000)">
                        <path d="M62.5357639,47.9106951 L62.5357639,62.1071406 C62.5357639,63.1422981 61.678062,64 60.6429045,64 L49.2857481,64 L49.2857481,52.6428436 L41.7143105,52.6428436 L41.7143105,64 L30.3571541,64 C29.3219967,64 28.4642947,63.1422981 28.4642947,62.1071406 L28.4642947,47.9106951 C28.4642947,47.8515432 28.4938707,47.7923914 28.4938707,47.7332395 L45.5000293,33.7142496 L62.506188,47.7332395 C62.5357639,47.7923914 62.5357639,47.8515432 62.5357639,47.9106951 Z M69.1311959,45.8699561 L67.2974884,48.0585747 C67.1496087,48.2360303 66.9130013,48.354334 66.6763939,48.38391 L66.5876661,48.38391 C66.3510587,48.38391 66.1440272,48.3247581 65.9665716,48.1768785 L45.5000293,31.1115679 L25.0334871,48.1768785 C24.8264556,48.3247581 24.5898482,48.4134859 24.3236648,48.38391 C24.0870574,48.354334 23.85045,48.2360303 23.7025703,48.0585747 L21.8688628,45.8699561 C21.5435276,45.485469 21.6026794,44.8643745 21.9871665,44.5390393 L43.2522588,26.8230584 C44.4944478,25.7879009 46.5056109,25.7879009 47.7477999,26.8230584 L54.9643263,32.8565477 L54.9643263,27.0892417 C54.9643263,26.556875 55.3783893,26.142812 55.910756,26.142812 L61.5893342,26.142812 C62.1217009,26.142812 62.5357639,26.556875 62.5357639,27.0892417 L62.5357639,39.1562204 L69.0128922,44.5390393 C69.3973793,44.8643745 69.4565311,45.485469 69.1311959,45.8699561 Z" id=""></path>
                    </g>
                </g>
            </g>
        </g>
    </g>
</svg>