<?xml version="1.0" encoding="UTF-8"?>
<svg width="45px" height="45px" viewBox="0 0 45 45" version="1.1" xmlns="http://www.w3.org/2000/svg" xmlns:xlink="http://www.w3.org/1999/xlink">
    <!-- Generator: Sketch 43.2 (39069) - http://www.bohemiancoding.com/sketch -->
    <title>noun_913125_cc</title>
    <desc>Created with Sketch.</desc>
    <defs>
        <linearGradient x1="19.8881537%" y1="15.4555731%" x2="66.6249722%" y2="88.6760114%" id="linearGradient-1">
            <stop stop-color="#2FCCCD" offset="0%"></stop>
            <stop stop-color="#19AEB2" offset="100%"></stop>
        </linearGradient>
    </defs>
    <g id="UI-0423" stroke="none" stroke-width="1" fill="none" fill-rule="evenodd">
        <g id="ui-home-" transform="translate(-618.000000, -2646.000000)" fill-rule="nonzero" fill="url(#linearGradient-1)">
            <g id="Group-48" transform="translate(0.000000, 2469.000000)">
                <g id="Group-44" transform="translate(481.000000, 125.000000)">
                    <g id="Group-43" transform="translate(113.000000, 26.000000)">
                        <g id="noun_913125_cc" transform="translate(24.000000, 26.000000)">
                            <g id="Group">
                                <g id="Shape">
                                    <path d="M42.727052,0.0766837816 L37.1539582,0.0766837816 C36.1266513,0.0766837816 35.2962603,0.91120202 35.2962603,1.93944771 L35.2962603,3.80221163 L9.28848956,3.80221163 L9.28848956,1.93944771 C9.28848956,0.91120202 8.45809859,0.0766837816 7.43079165,0.0766837816 L1.85769791,0.0766837816 C0.830390966,0.0766837816 0,0.91120202 0,1.93944771 L0,42.9202541 C0,43.9484998 0.830390966,44.783018 1.85769791,44.783018 L7.43079165,44.783018 C8.45809859,44.783018 9.28848956,43.9484998 9.28848956,42.9202541 L9.28848956,13.1160313 L20.434677,13.1160313 L20.434677,17.1843077 C18.2778898,17.9573547 16.7192812,20.0045323 16.7192812,22.4298509 C16.7192812,24.8551695 18.2778898,26.9023471 20.434677,27.6735313 L20.434677,32.008183 C17.2375789,32.8408385 14.8615833,35.7337109 14.8615833,39.1947262 C14.8615833,40.2229719 15.6919743,41.0574902 16.7192812,41.0574902 C17.7465881,41.0574902 18.5769791,40.2229719 18.5769791,39.1947262 C18.5769791,37.1400976 20.2433341,35.4691984 22.2923749,35.4691984 C24.3414157,35.4691984 26.0077708,37.1400976 26.0077708,39.1947262 C26.0077708,40.2229719 26.8381617,41.0574902 27.8654687,41.0574902 C28.8927756,41.0574902 29.7231666,40.2229719 29.7231666,39.1947262 C29.7231666,35.7337109 27.347171,32.8408385 24.1500729,32.008183 L24.1500729,27.6753941 C26.3068601,26.9023471 27.8654687,24.8551695 27.8654687,22.4298509 C27.8654687,20.0045323 26.3068601,17.9573547 24.1500729,17.1843077 L24.1500729,13.1160313 L35.2962603,13.1160313 L35.2962603,42.9202541 C35.2962603,43.9484998 36.1266513,44.783018 37.1539582,44.783018 L42.727052,44.783018 C43.7543589,44.783018 44.5847499,43.9484998 44.5847499,42.9202541 L44.5847499,1.93944771 C44.5847499,0.91120202 43.7543589,0.0766837816 42.727052,0.0766837816"></path>
                                </g>
                            </g>
                        </g>
                    </g>
                </g>
            </g>
        </g>
    </g>
</svg>