<?xml version="1.0" encoding="UTF-8"?>
<svg width="44px" height="47px" viewBox="0 0 44 47" version="1.1" xmlns="http://www.w3.org/2000/svg" xmlns:xlink="http://www.w3.org/1999/xlink">
    <!-- Generator: Sketch 43.2 (39069) - http://www.bohemiancoding.com/sketch -->
    <title>Fill 1</title>
    <desc>Created with Sketch.</desc>
    <defs>
        <linearGradient x1="50%" y1="0%" x2="50%" y2="100%" id="linearGradient-1">
            <stop stop-color="#FFE18C" offset="0%"></stop>
            <stop stop-color="#FDBE10" offset="100%"></stop>
        </linearGradient>
    </defs>
    <g id="UI-0419" stroke="none" stroke-width="1" fill="none" fill-rule="evenodd">
        <g id="ui-home-" transform="translate(-186.000000, -2644.000000)" fill="url(#linearGradient-1)">
            <g id="Group-48" transform="translate(0.000000, 2469.000000)">
                <g id="Group-11" transform="translate(50.000000, 125.000000)">
                    <g id="Group-29" transform="translate(113.000000, 26.000000)">
                        <g id="Page-1" transform="translate(22.000000, 20.000000)">
                            <path d="M25.3467726,41.0100518 L32.3869352,37.2787716 C32.8729023,37.0210497 33.2667156,37.3332199 33.2667156,37.9761936 L33.2667156,45.1411033 C33.2667156,45.784077 32.8729023,46.513926 32.3869352,46.7714059 L25.3467726,50.5031701 C24.8608056,50.7606499 24.4667523,50.4484798 24.4667523,49.8057481 L24.4667523,42.6405963 C24.4667523,41.9976226 24.8608056,41.2677736 25.3467726,41.0100518 M25.3467726,28.7925835 L32.3869352,25.0610613 C32.8729023,24.8035814 33.2667156,25.1157516 33.2667156,25.7587253 L33.2667156,32.9236351 C33.2667156,33.5663668 32.8729023,34.2964577 32.3869352,34.5541796 L25.3467726,38.2857018 C24.8608056,38.5434236 24.4667523,38.2310115 24.4667523,37.5882798 L24.4667523,30.422886 C24.4667523,29.7801543 24.8608056,29.0503054 25.3467726,28.7925835 M14.0392193,21.3675319 L22.3304171,17.1542029 C22.9027783,16.8635701 23.8307954,16.8635701 24.4031566,17.1542029 L32.6945944,21.3675319 C33.2667156,21.6584067 33.2667156,22.1298079 32.6945944,22.4209247 L24.4031566,26.6340116 C23.8307954,26.9246445 22.9027783,26.9246445 22.3304171,26.6340116 L14.0392193,22.4209247 C13.4666182,22.1298079 13.4666182,21.6584067 14.0392193,21.3675319 M13.6134882,37.2170635 L20.6534109,40.9657672 C21.1393779,41.224457 21.5334312,41.9576939 21.5334312,42.6033295 L21.5334312,49.8013922 C21.5334312,50.4470278 21.1393779,50.7606499 20.6534109,50.5019601 L13.6134882,46.7532564 C13.1272812,46.4945666 12.7334679,45.7613298 12.7334679,45.1154522 L12.7334679,37.9176314 C12.7334679,37.2717538 13.1272812,36.9583737 13.6134882,37.2170635 M13.6134882,24.9995953 L20.6534109,28.7482989 C21.1393779,29.0069887 21.5334312,29.7404676 21.5334312,30.3861032 L21.5334312,37.5839239 C21.5334312,38.2295596 21.1393779,38.5434236 20.6534109,38.2844918 L13.6134882,34.5357882 C13.1272812,34.2770983 12.7334679,33.5438615 12.7334679,32.8979839 L12.7334679,25.7001631 C12.7334679,25.0545275 13.1272812,24.7406634 13.6134882,24.9995953 M1.87996381,31.3775459 L8.92012644,35.1260075 C9.40609349,35.3849394 9.80014677,36.1181762 9.80014677,36.7638118 L9.80014677,43.9616326 C9.80014677,44.6072682 9.40609349,44.9211323 8.92012644,44.6622005 L1.87996381,40.9137388 C1.39399676,40.655049 0.999943478,39.9215701 0.999943478,39.2759345 L0.999943478,32.0781138 C0.999943478,31.4324782 1.39399676,31.1186141 1.87996381,31.3775459 M1.87996381,19.2154939 L8.92012644,22.9639555 C9.40609349,23.2228873 9.80014677,23.9561242 9.80014677,24.6020018 L9.80014677,31.7998226 C9.80014677,32.4454582 9.40609349,32.7593223 8.92012644,32.5003904 L1.87996381,28.7516868 C1.39399676,28.492997 0.999943478,27.7597601 0.999943478,27.1138825 L0.999943478,19.9160617 C0.999943478,19.2704261 1.39399676,18.956804 1.87996381,19.2154939 M20.2276797,15.9529529 L11.9362419,20.1660399 C11.3638807,20.4569147 10.4358637,20.4569147 9.86350247,20.1660399 L1.57230467,15.9529529 C0.999943478,15.6620781 0.999943478,15.1904349 1.57230467,14.8995601 L9.86350247,10.6862312 C10.4358637,10.3953563 11.3638807,10.3953563 11.9362419,10.6862312 L20.2276797,14.8995601 C20.8000409,15.190193 20.8000409,15.6620781 20.2276797,15.9529529 M31.9609641,9.48473908 L23.6697663,13.6980681 C23.0974051,13.9889429 22.1693881,13.9889429 21.5970269,13.6980681 L13.3058291,9.48473908 C12.7332279,9.19386427 12.7332279,8.72222116 13.3058291,8.43134634 L21.5970269,4.21801736 C22.1693881,3.92738454 23.0974051,3.92738454 23.6697663,4.21801736 L31.9609641,8.43134634 C32.5333253,8.72197917 32.5333253,9.19386427 31.9609641,9.48473908 M44.4276388,15.9529529 L36.136441,20.1660399 C35.5640798,20.4569147 34.6360627,20.4569147 34.0637015,20.1660399 L25.7725037,15.9529529 C25.2001426,15.6620781 25.2001426,15.1904349 25.7725037,14.8995601 L34.0637015,10.6862312 C34.6360627,10.3953563 35.5640798,10.3953563 36.136441,10.6862312 L44.4276388,14.8995601 C45,15.190193 45,15.6620781 44.4276388,15.9529529 M44.1202197,28.7700782 L37.080057,32.5016004 C36.59409,32.7593223 36.2000367,32.4469101 36.2000367,31.8041784 L36.2000367,24.6390266 C36.2000367,23.9960529 36.59409,23.266204 37.080057,23.0087241 L44.1202197,19.2769599 C44.6061867,19.0194801 45,19.3316502 45,19.9746239 L45,27.1395337 C45,27.7822654 44.6064267,28.5123563 44.1202197,28.7700782 M44.1202197,40.9321302 L37.080057,44.6636524 C36.59409,44.9211323 36.2000367,44.6089621 36.2000367,43.9659884 L36.2000367,36.8010787 C36.2000367,36.158105 36.59409,35.428256 37.080057,35.1707761 L44.1202197,31.4390119 C44.6061867,31.1812901 45,31.4937022 45,32.1364339 L45,39.3015857 C45,39.9443174 44.6064267,40.6744084 44.1202197,40.9321302" id="Fill-1"></path>
                        </g>
                    </g>
                </g>
            </g>
        </g>
    </g>
</svg>