<?xml version="1.0" encoding="UTF-8"?>
<svg width="40px" height="39px" viewBox="0 0 40 39" version="1.1" xmlns="http://www.w3.org/2000/svg" xmlns:xlink="http://www.w3.org/1999/xlink">
    <!-- Generator: Sketch 43.2 (39069) - http://www.bohemiancoding.com/sketch -->
    <title>Group 9</title>
    <desc>Created with Sketch.</desc>
    <defs>
        <linearGradient x1="19.8881537%" y1="15.4555731%" x2="66.6249722%" y2="88.6760114%" id="linearGradient-1">
            <stop stop-color="#2FCCCD" offset="0%"></stop>
            <stop stop-color="#19AEB2" offset="100%"></stop>
        </linearGradient>
    </defs>
    <g id="UI-0423" stroke="none" stroke-width="1" fill="none" fill-rule="evenodd">
        <g id="ui-home-" transform="translate(-661.000000, -1639.000000)" fill="#3DCBCC">
            <g id="Group-27" transform="translate(643.000000, 1623.000000)">
                <g id="Group-9" transform="translate(13.000000, 14.000000)">
                    <g id="Group-45">
                        <path d="M24.6386054,18.2509687 C21.8499695,18.2509687 19.6099177,15.9800827 19.6099177,13.1530612 C19.6099177,10.3260398 21.8499695,8.05515371 24.6386054,8.05515371 C27.4272414,8.05515371 29.6672932,10.3260398 29.6672932,13.1530612 C29.6672932,15.9800827 27.4272414,18.2509687 24.6386054,18.2509687 M34.8102693,12.6896151 L30.1244466,4.46344614 C29.9644429,4.16220615 29.6444355,4 29.3244281,4 L19.9527828,4 C19.6327753,4 19.3127679,4.18537846 19.1527642,4.46344614 L14.4669416,12.6896151 C14.3069379,12.9908551 14.3069379,13.3384397 14.4669416,13.6396797 L19.1527642,21.8426763 C19.3127679,22.1439163 19.6327753,22.3061224 19.9527828,22.3061224 L29.3015705,22.3061224 C29.6215779,22.3061224 29.9415853,22.120744 30.101589,21.8426763 L34.8102693,13.6165074 C34.970273,13.3384397 34.970273,12.9676828 34.8102693,12.6896151" id="Page-1" transform="translate(24.638605, 13.153061) rotate(-330.000000) translate(-24.638605, -13.153061) "></path>
                        <path d="M14.2916667,35.6676354 C11.5030307,35.6676354 9.2629789,33.3967493 9.2629789,30.5697279 C9.2629789,27.7427064 11.5030307,25.4718204 14.2916667,25.4718204 C17.0803026,25.4718204 19.3203544,27.7427064 19.3203544,30.5697279 C19.3203544,33.3967493 17.0803026,35.6676354 14.2916667,35.6676354 M24.4633306,30.1062818 L19.7775079,21.8801128 C19.6175042,21.5788728 19.2974968,21.4166667 18.9774894,21.4166667 L9.60584398,21.4166667 C9.28583657,21.4166667 8.96582917,21.6020451 8.80582547,21.8801128 L4.12000278,30.1062818 C3.95999907,30.4075217 3.95999907,30.7551063 4.12000278,31.0563463 L8.80582547,39.259343 C8.96582917,39.560583 9.28583657,39.7227891 9.60584398,39.7227891 L18.9546317,39.7227891 C19.2746391,39.7227891 19.5946465,39.5374107 19.7546502,39.259343 L24.4633306,31.033174 C24.6233343,30.7551063 24.6233343,30.3843494 24.4633306,30.1062818" id="Page-1-Copy" transform="translate(14.291667, 30.569728) rotate(-330.000000) translate(-14.291667, -30.569728) "></path>
                        <path d="M34.9855442,35.6676354 C32.1969083,35.6676354 29.9568565,33.3967493 29.9568565,30.5697279 C29.9568565,27.7427064 32.1969083,25.4718204 34.9855442,25.4718204 C37.7741802,25.4718204 40.014232,27.7427064 40.014232,30.5697279 C40.014232,33.3967493 37.7741802,35.6676354 34.9855442,35.6676354 M45.1572081,30.1062818 L40.4713854,21.8801128 C40.3113817,21.5788728 39.9913743,21.4166667 39.6713669,21.4166667 L30.2997215,21.4166667 C29.9797141,21.4166667 29.6597067,21.6020451 29.499703,21.8801128 L24.8138803,30.1062818 C24.6538766,30.4075217 24.6538766,30.7551063 24.8138803,31.0563463 L29.499703,39.259343 C29.6597067,39.560583 29.9797141,39.7227891 30.2997215,39.7227891 L39.6485092,39.7227891 C39.9685166,39.7227891 40.288524,39.5374107 40.4485277,39.259343 L45.1572081,31.033174 C45.3172118,30.7551063 45.3172118,30.3843494 45.1572081,30.1062818" id="Page-1-Copy-3" transform="translate(34.985544, 30.569728) rotate(-330.000000) translate(-34.985544, -30.569728) "></path>
                    </g>
                </g>
            </g>
        </g>
    </g>
</svg>