<?xml version="1.0" encoding="UTF-8"?>
<svg width="41px" height="41px" viewBox="0 0 41 41" version="1.1" xmlns="http://www.w3.org/2000/svg" xmlns:xlink="http://www.w3.org/1999/xlink">
    <!-- Generator: Sketch 43.2 (39069) - http://www.bohemiancoding.com/sketch -->
    <title>Shape</title>
    <desc>Created with Sketch.</desc>
    <defs>
        <linearGradient x1="19.8881537%" y1="15.4555731%" x2="66.6249722%" y2="88.6760114%" id="linearGradient-1">
            <stop stop-color="#2FCCCD" offset="0%"></stop>
            <stop stop-color="#19AEB2" offset="100%"></stop>
        </linearGradient>
    </defs>
    <g id="UI-0423" stroke="none" stroke-width="1" fill="none" fill-rule="evenodd">
        <g id="ui-home-" transform="translate(-661.000000, -1525.000000)" fill-rule="nonzero" fill="url(#linearGradient-1)">
            <g id="Group-8" transform="translate(643.000000, 1507.000000)">
                <g id="iconmonstr-cpu-3" transform="translate(18.000000, 18.000000)">
                    <path d="M37.4347826,7.13043478 C37.4347826,5.16243478 35.8375652,3.56521739 33.8695652,3.56521739 L7.13043478,3.56521739 C5.16243478,3.56521739 3.56521739,5.16243478 3.56521739,7.13043478 L3.56521739,33.8695652 C3.56521739,35.8375652 5.16243478,37.4347826 7.13043478,37.4347826 L33.8695652,37.4347826 C35.8375652,37.4347826 37.4347826,35.8375652 37.4347826,33.8695652 L37.4347826,7.13043478 Z M33.8695652,32.5326087 C33.8695652,33.2706087 33.2706087,33.8695652 32.5326087,33.8695652 L8.4673913,33.8695652 C7.7293913,33.8695652 7.13043478,33.2706087 7.13043478,32.5326087 L7.13043478,8.4673913 C7.13043478,7.7293913 7.7293913,7.13043478 8.4673913,7.13043478 L32.5326087,7.13043478 C33.2706087,7.13043478 33.8695652,7.7293913 33.8695652,8.4673913 L33.8695652,32.5326087 Z M17.826087,39.2173913 L17.826087,41 L16.0434783,41 L16.0434783,39.2173913 L17.826087,39.2173913 Z M21.3913043,39.2173913 L21.3913043,41 L19.6086957,41 L19.6086957,39.2173913 L21.3913043,39.2173913 Z M14.2608696,39.2173913 L14.2608696,41 L12.4782609,41 L12.4782609,39.2173913 L14.2608696,39.2173913 Z M24.9565217,39.2173913 L24.9565217,41 L23.173913,41 L23.173913,39.2173913 L24.9565217,39.2173913 Z M28.5217391,39.2173913 L28.5217391,41 L26.7391304,41 L26.7391304,39.2173913 L28.5217391,39.2173913 Z M17.826087,0 L17.826087,1.7826087 L16.0434783,1.7826087 L16.0434783,0 L17.826087,0 Z M21.3913043,0 L21.3913043,1.7826087 L19.6086957,1.7826087 L19.6086957,0 L21.3913043,0 Z M14.2608696,0 L14.2608696,1.7826087 L12.4782609,1.7826087 L12.4782609,0 L14.2608696,0 Z M24.9565217,0 L24.9565217,1.7826087 L23.173913,1.7826087 L23.173913,0 L24.9565217,0 Z M28.5217391,0 L28.5217391,1.7826087 L26.7391304,1.7826087 L26.7391304,0 L28.5217391,0 Z M39.2173913,23.173913 L41,23.173913 L41,24.9565217 L39.2173913,24.9565217 L39.2173913,23.173913 Z M39.2173913,16.0434783 L41,16.0434783 L41,17.826087 L39.2173913,17.826087 L39.2173913,16.0434783 Z M39.2173913,12.4782609 L41,12.4782609 L41,14.2608696 L39.2173913,14.2608696 L39.2173913,12.4782609 Z M39.2173913,19.6086957 L41,19.6086957 L41,21.3913043 L39.2173913,21.3913043 L39.2173913,19.6086957 Z M39.2173913,26.7391304 L41,26.7391304 L41,28.5217391 L39.2173913,28.5217391 L39.2173913,26.7391304 Z M0,23.173913 L1.7826087,23.173913 L1.7826087,24.9565217 L0,24.9565217 L0,23.173913 Z M0,16.0434783 L1.7826087,16.0434783 L1.7826087,17.826087 L0,17.826087 L0,16.0434783 Z M0,12.4782609 L1.7826087,12.4782609 L1.7826087,14.2608696 L0,14.2608696 L0,12.4782609 Z M0,19.6086957 L1.7826087,19.6086957 L1.7826087,21.3913043 L0,21.3913043 L0,19.6086957 Z M0,26.7391304 L1.7826087,26.7391304 L1.7826087,28.5217391 L0,28.5217391 L0,26.7391304 Z M30.3043478,30.3043478 L10.6956522,30.3043478 L10.6956522,10.6956522 L30.3043478,10.6956522 L30.3043478,30.3043478 Z" id="Shape"></path>
                </g>
            </g>
        </g>
    </g>
</svg>