<?xml version="1.0" encoding="UTF-8"?>
<svg width="38px" height="38px" viewBox="0 0 38 38" version="1.1" xmlns="http://www.w3.org/2000/svg" xmlns:xlink="http://www.w3.org/1999/xlink">
    <!-- Generator: Sketch 43.2 (39069) - http://www.bohemiancoding.com/sketch -->
    <title>Shape</title>
    <desc>Created with Sketch.</desc>
    <defs>
        <linearGradient x1="19.8881537%" y1="15.4555731%" x2="66.6249722%" y2="88.6760114%" id="linearGradient-1">
            <stop stop-color="#2FCCCD" offset="0%"></stop>
            <stop stop-color="#19AEB2" offset="100%"></stop>
        </linearGradient>
    </defs>
    <g id="UI-0423" stroke="none" stroke-width="1" fill="none" fill-rule="evenodd">
        <g id="ui-home-" transform="translate(-660.000000, -1759.000000)" fill-rule="nonzero" fill="url(#linearGradient-1)">
            <g id="Group-28" transform="translate(642.000000, 1738.000000)">
                <g id="iconmonstr-rocket-10" transform="translate(18.000000, 21.000000)">
                    <path d="M12.6840833,9.84041667 C9.975,9.82616667 6.57241667,11.2939167 3.97733333,13.889 C2.98775,14.8785833 2.11533333,16.0344167 1.44241667,17.3311667 C3.78416667,15.5594167 6.28266667,15.0036667 9.2055,16.644 C10.0668333,14.36875 11.2163333,12.0523333 12.6840833,9.84041667 L12.6840833,9.84041667 Z M28.177,25.3143333 C25.7766667,26.8834167 23.4159167,28.0155 21.3734167,28.8135 C23.01375,31.7395 22.4595833,34.2348333 20.68625,36.575 C21.983,35.9036667 23.1388333,35.03125 24.13,34.0385 C26.733,31.4386667 28.2023333,28.0281667 28.177,25.3143333 L28.177,25.3143333 Z M37.9176667,0.0665 C37.2653333,0.0221666667 36.6256667,-1.87350135e-16 35.9970833,-1.87350135e-16 C22.37725,-1.87350135e-16 14.62525,10.3835 11.80375,18.7355833 L19.28975,26.2231667 C27.8840833,23.142 38,15.6765833 38,2.20083333 C38,1.50575 37.9730833,0.794833333 37.9176667,0.0665 L37.9176667,0.0665 Z M22.2616667,15.7573333 C21.6425833,15.13825 21.6425833,14.1375833 22.2616667,13.5185 C22.88075,12.8994167 23.8814167,12.8994167 24.5005,13.5185 C25.1195833,14.1375833 25.1195833,15.13825 24.5005,15.7573333 C23.8814167,16.3764167 22.8791667,16.3748333 22.2616667,15.7573333 Z M26.7393333,11.2796667 C25.50275,10.0446667 25.50275,8.03858333 26.7393333,6.802 C27.9759167,5.56541667 29.982,5.56541667 31.217,6.802 C32.4535833,8.03858333 32.4535833,10.0430833 31.217,11.2796667 C29.9804167,12.51625 27.9759167,12.51625 26.7393333,11.2796667 Z M14.0394167,24.9359167 L15.6433333,26.53825 C14.1518333,28.04875 12.6239167,29.8363333 12.02225,32.2968333 L9.82141667,31.7585 C10.5608333,28.7311667 12.3658333,26.6285 14.0394167,24.9359167 L14.0394167,24.9359167 Z M11.45225,22.3503333 L13.0514167,23.9495 C11.2796667,25.6959167 9.23083333,27.4375833 6.232,28.1706667 L5.69366667,25.9698333 C8.15258333,25.3665833 9.95283333,23.8323333 11.45225,22.3503333 L11.45225,22.3503333 Z M15.8000833,32.5565 C16.12625,35.7690833 14.30225,37.7260833 11.8734167,37.9730833 C10.44525,38.11875 9.18016667,37.6485 8.14308333,36.57975 C5.64933333,37.4600833 3.27591667,36.5053333 2.02508333,34.7240833 C1.04025,33.326 0.82175,31.55425 1.42025,29.8569167 C0.349916667,28.81825 -0.120333333,27.56425 0.0269166667,26.1265833 C0.27075,23.7183333 2.18183333,21.8610833 5.54325,22.2078333 L5.87575,24.1205 C4.74208333,24.2265833 3.69233333,24.2851667 3.0115,24.9644167 C1.86833333,26.1091667 2.2135,28.4936667 4.35891667,29.127 C2.9355,30.5583333 3.07166667,32.6135 4.142,33.7408333 C5.26141667,34.9235833 7.39891667,35.10725 8.87141667,33.6410833 C9.53008333,35.8735833 11.94625,36.0746667 13.034,34.9885 C13.7053333,34.3171667 13.77025,33.2864167 13.87475,32.167 L15.8000833,32.5565 Z" id="Shape"></path>
                </g>
            </g>
        </g>
    </g>
</svg>