<?xml version="1.0" encoding="UTF-8"?>
<svg width="92px" height="35px" viewBox="0 0 92 35" version="1.1" xmlns="http://www.w3.org/2000/svg" xmlns:xlink="http://www.w3.org/1999/xlink">
    <!-- Generator: Sketch 43.2 (39069) - http://www.bohemiancoding.com/sketch -->
    <title>Group 13 Copy</title>
    <desc>Created with Sketch.</desc>
    <defs></defs>
    <g id="UI-0419" stroke="none" stroke-width="1" fill="none" fill-rule="evenodd" opacity="0.100000001">
        <g id="ui-home-" transform="translate(-118.000000, -3605.000000)" fill="#000000">
            <g id="Group-26" transform="translate(0.000000, 3532.000000)">
                <g id="Group-22" transform="translate(61.000000, 73.000000)">
                    <g id="Group-23" transform="translate(57.000000, 0.000000)">
                        <g id="Group-54">
                            <g id="Group-13-Copy">
                                <path d="M25.2258641,31.2393421 C24.2478058,31.2393421 23.455534,30.4223684 23.455534,29.4138158 C23.455534,28.4052632 24.2478058,27.5882895 25.2258641,27.5882895 C26.2039223,27.5882895 26.9961942,28.4052632 26.9961942,29.4138158 C26.9961942,30.4223684 26.2039223,31.2393421 25.2258641,31.2393421 Z M5.2448932,31.2393421 C4.26772816,31.2393421 3.47456311,30.4223684 3.47456311,29.4138158 C3.47456311,28.4052632 4.26772816,27.5882895 5.2448932,27.5882895 C6.22295146,27.5882895 7.0152233,28.4052632 7.0152233,29.4138158 C7.0152233,30.4223684 6.22295146,31.2393421 5.2448932,31.2393421 Z M25.2258641,24.0053947 C25.1695922,24.0053947 25.116,24.0118421 25.0597282,24.0136842 L21.6646602,17.8030263 C21.528,17.5525 21.4815534,17.2605263 21.5333592,16.9777632 L21.6610874,16.2823684 C21.7128932,15.9996053 21.9040388,15.7675 22.1657476,15.6707895 C25.4607767,14.4540789 30.0125437,12.7510526 30.0125437,7.30210526 C30.0125437,3.28631579 26.960466,0 21.2787961,0 L8.52473786,0 C8.15048544,0 7.82714563,0.272631579 7.75390291,0.651184211 L3.09137864,24.4861842 C1.27013592,25.3335526 0,27.2189474 0,29.4138158 C0,32.4007895 2.34823301,34.8222368 5.2448932,34.8222368 C8.1415534,34.8222368 10.4906796,32.4007895 10.4906796,29.4138158 C10.4906796,27.3478947 9.36702913,25.5546053 7.71549515,24.6436842 L11.5518058,5.03078947 C11.5893204,4.84197368 11.7500971,4.70565789 11.9376699,4.70565789 L21.2787961,4.70565789 C22.5328544,4.70565789 25.449165,4.95894737 25.449165,7.30210526 C25.449165,9.03644737 24.4943301,9.81289474 20.5865631,11.2561842 L19.4379029,11.6826316 C18.391068,12.0722368 17.6211262,13.0025 17.4130097,14.1298684 L16.8726214,17.0615789 C16.7341748,17.8140789 16.8583301,18.5932895 17.2236505,19.2610526 L21.015301,26.1975 C20.3686214,27.0973684 19.9809709,28.2072368 19.9809709,29.4138158 C19.9809709,32.4007895 22.3292039,34.8222368 25.2258641,34.8222368 C28.1225243,34.8222368 30.4707573,32.4007895 30.4707573,29.4138158 C30.4707573,26.4268421 28.1225243,24.0053947 25.2258641,24.0053947 Z" id="Fill-1"></path>
                                <path d="M52.419099,13.1762105 L48.4309437,13.1762105 C48.2460505,13.1762105 48.0852738,13.3097632 48.046866,13.4967368 L45.4985553,25.3626579 C45.3663612,26.0239737 45.3770796,25.9677895 45.1644971,26.6622632 C44.9036816,27.5151579 44.2444971,28.6977895 42.9484583,29.5092368 C40.0062447,31.3504211 37.4731184,30.6623947 37.8580893,28.5071316 C37.8991767,28.2759474 38.1260505,26.9284474 38.1966136,26.6097632 L40.8762252,13.6662105 C40.9289243,13.4138421 40.7422447,13.1762105 40.4912544,13.1762105 L36.5066718,13.1762105 C36.3208854,13.1762105 36.1610019,13.3097632 36.121701,13.4967368 L33.2679146,27.1660789 C33.1937786,27.5225263 33.1437592,27.9323947 33.1196427,28.3846316 C33.0955262,28.8267368 33.0839146,29.2209474 33.0839146,29.5635789 C33.0839146,31.1846316 33.5519534,32.4971316 34.4737398,33.4623947 C35.3973126,34.4313421 36.9175456,34.9213421 38.8370408,34.9213421 C40.2366913,34.9213421 41.5282641,34.6606842 42.5777786,34.1218684 C43.3012738,33.7497632 43.8202252,33.4412105 44.3900893,32.8627895 L44.0211961,34.3908158 C43.9711767,34.6422632 44.1569631,34.8789737 44.4070602,34.8789737 L48.1522641,34.8789737 C48.3389437,34.8789737 48.4988272,34.7445 48.537235,34.5566053 L52.8040699,13.6652895 C52.8558757,13.4129211 52.6691961,13.1762105 52.419099,13.1762105" id="Fill-3"></path>
                                <path d="M66.6105903,16.6344868 L68.8578913,17.8401447 L66.6945515,19.0273816 C66.5034058,19.1333026 66.4301631,19.3783026 66.5328816,19.5763289 L66.9017748,20.2929079 C67.0044932,20.4900132 67.2420854,20.5655395 67.4341243,20.4605395 L71.5776971,18.1846184 C71.8563767,18.0308026 71.8545903,17.61725 71.5741243,17.4671184 L67.3358718,15.1948816 C67.1429398,15.0917237 66.9062408,15.1690921 66.8053087,15.3680395 L66.442668,16.0873816 C66.3426291,16.2863289 66.4176583,16.5313289 66.6105903,16.6344868" id="Fill-5"></path>
                                <path d="M75.5676388,18.1847105 L79.7103184,20.4597105 C79.9023573,20.5656316 80.1408427,20.4901053 80.242668,20.293 L80.6124544,19.5764211 C80.7142796,19.3783947 80.6419301,19.1333947 80.4498913,19.0274737 L78.2865515,17.8402368 L80.5347456,16.6345789 C80.7276777,16.5314211 80.8027068,16.2864211 80.702668,16.0874737 L80.339134,15.3672105 C80.2390951,15.1691842 80.0015029,15.0918158 79.8085709,15.1949737 L75.5712117,17.4672105 C75.2898524,17.6173421 75.288066,18.0308947 75.5676388,18.1847105" id="Fill-7"></path>
                                <path d="M60.1795223,22.5213026 L86.4808039,22.5213026 L86.4808039,13.1763026 L60.1795223,13.1763026 L60.1795223,22.5213026 Z M91.1227845,16.3760395 L88.8406485,16.3760395 L88.8406485,11.1481447 C88.8406485,10.9243289 88.6646874,10.7419605 88.4476388,10.7419605 L84.610435,10.7419605 L84.7336971,10.0244605 C84.8980466,9.29038158 85.0356,8.61340789 85.1454641,7.99261842 C85.2455029,7.41972368 85.4036,6.91682895 85.6152893,6.49590789 C85.8126874,6.10353947 86.0833282,5.80880263 86.4423961,5.59419737 C86.7996777,5.37867105 87.3418524,5.26998684 88.0546291,5.26998684 C88.4128039,5.26998684 88.9585515,5.34643421 89.4042602,5.42011842 C89.8231728,5.48919737 90.2197553,5.20551316 90.3019301,4.77538158 L90.9298524,1.47985526 C91.0156,1.03038158 90.7244155,0.596565789 90.2858524,0.522881579 C89.8294252,0.445513158 89.2926097,0.357092105 89.0032117,0.317486842 C88.4172699,0.236434211 87.7973864,0.194986842 87.1596388,0.194986842 C85.6947845,0.194986842 84.4853864,0.432618421 83.5653864,0.900513158 C82.6382408,1.37301316 81.8870563,2.05827632 81.3332699,2.93880263 C80.7964544,3.79353947 80.3820078,4.82327632 80.1015417,5.99946053 C79.9898913,6.46919737 79.5013087,9.10340789 79.1994058,10.7419605 L69.5545903,10.7419605 L69.6724932,10.0244605 C69.8368427,9.29038158 69.9735029,8.61340789 70.083367,7.99261842 C70.184299,7.41972368 70.3423961,6.91682895 70.5540854,6.49682895 C70.7514835,6.10353947 71.0221243,5.80788158 71.380299,5.59419737 C71.7375806,5.37867105 72.2806485,5.26998684 72.9934252,5.26998684 C73.3516,5.26998684 73.8973476,5.34643421 74.3421631,5.42011842 C74.7619689,5.48919737 75.1585515,5.20551316 75.2407262,4.77538158 L75.8686485,1.47985526 C75.9543961,1.03038158 75.6632117,0.596565789 75.2246485,0.522881579 C74.7682214,0.445513158 74.2305126,0.357092105 73.9411146,0.317486842 C73.356066,0.236434211 72.7352893,0.194986842 72.098435,0.194986842 C70.6326874,0.194986842 69.4232893,0.432618421 68.5041825,0.900513158 C67.5761437,1.37301316 66.8258524,2.05827632 66.272066,2.93788158 C65.7352505,3.79353947 65.3208039,4.82235526 65.0403379,5.99853947 L65.0403379,5.99946053 C64.9152893,6.52261842 64.4276,9.15498684 64.1373087,10.7419605 L58.2126874,10.7419605 C57.9956388,10.7419605 57.8196777,10.9243289 57.8196777,11.1481447 L57.8196777,16.3760395 L55.4589398,16.3760395 C55.2427845,16.3760395 55.0659301,16.5584079 55.0659301,16.7822237 L55.0659301,18.4041974 C55.0659301,18.6280132 55.2427845,18.8103816 55.4589398,18.8103816 L57.8196777,18.8103816 L57.8196777,24.5494605 C57.8196777,24.7732763 57.9956388,24.9556447 58.2126874,24.9556447 L61.5756,24.9556447 L59.9062019,34.3503816 C59.8615417,34.5990658 60.0473282,34.8284079 60.2929592,34.8284079 L64.9331534,34.8284079 C65.1225126,34.8284079 65.2859689,34.6893289 65.3199107,34.4968289 L67.0286097,24.9556447 L76.6368039,24.9556447 L74.9674058,34.3503816 C74.9236388,34.5990658 75.108532,34.8284079 75.3541631,34.8284079 L79.9952505,34.8284079 C80.1846097,34.8284079 80.3471728,34.6893289 80.3820078,34.4968289 L82.0898136,24.9556447 L88.4476388,24.9556447 C88.6646874,24.9556447 88.8406485,24.7732763 88.8406485,24.5494605 L88.8406485,18.8103816 L91.1227845,18.8103816 C91.3389398,18.8103816 91.5157942,18.6280132 91.5157942,18.4041974 L91.5157942,16.7822237 C91.5157942,16.5584079 91.3389398,16.3760395 91.1227845,16.3760395 L91.1227845,16.3760395 Z" id="Fill-9"></path>
                            </g>
                        </g>
                    </g>
                </g>
            </g>
        </g>
    </g>
</svg>