<!-- Generator: Adobe Illustrator 19.2.1, SVG Export Plug-In . SVG Version: 6.00 Build 0)  -->
<svg version="1.1" id="图层_1" xmlns="http://www.w3.org/2000/svg" xmlns:xlink="http://www.w3.org/1999/xlink" x="0px" y="0px" width="85px" height="31px"
	 viewBox="0 0 85 31" style="enable-background:new 0 0 85 31;" xml:space="preserve">
<style type="text/css">
	.st0{fill:#FFFFFF;}
</style>
<title>85x31logo白白</title>
<path class="st0" d="M50.2,12.4c0-3-2.4-5.5-5.4-5.5c0,0-0.1,0-0.1,0h-6.3V25h2.6V9.4h3.7c1.7,0,3.1,1.3,3.1,2.9s-1.3,3.1-2.9,3.1
	h-2.5v1.2l5.5,8.3h3.3l-4.7-7.4C48.6,16.9,50.2,14.8,50.2,12.4z"/>
<path class="st0" d="M61.8,18.8c0.1,1.7-1.2,3.3-2.9,3.5c-0.3,0-0.5,0-0.8,0c-1.8-0.2-3.1-1.7-3-3.5v-6.8h-2.5v7.2
	c0.2,3,2.6,5.5,5.6,5.7h0.5c3.1-0.1,5.5-2.6,5.6-5.7v-7.2h-2.6V18.8z"/>
<path class="st0" d="M70.3,11.3c0-1.4,0.4-1.8,1.2-1.8h1.4V6.9h-1.2c-1,0-1.9,0.4-2.6,1.1c-0.8,0.9-1.3,2.1-1.2,3.3v0.8h-1v2.5h1V25
	h2.5V14.6h2.6v-2.5h-2.6V11.3z"/>
<path class="st0" d="M78.3,11.3c0-1.4,0.4-1.8,1.2-1.8h1.4V6.9h-1.2c-1,0-1.9,0.4-2.7,1.1c-0.8,0.9-1.3,2.1-1.2,3.3v0.8h-1v2.5h1V25
	h2.5V14.6h2.6v-2.5h-2.6V11.3z"/>
<polygon class="st0" points="16.8,8.9 16.8,1.4 3.7,11.4 8.6,15.1 "/>
<polygon class="st0" points="9,16.3 9,16.3 3.1,11.8 3.1,19.3 16.8,29.7 16.8,22.2 "/>
<polygon class="st0" points="17.5,1.4 17.5,8.9 25.7,15.1 30.7,11.4 "/>
<polygon class="st0" points="26.3,15.6 26.3,15.6 17.5,22.2 17.5,29.7 31.2,19.3 31.2,19.3 31.2,19.3 31.2,11.8 "/>
</svg>
